<svg width="191" height="183" viewBox="0 0 191 183" fill="none" xmlns="http://www.w3.org/2000/svg">
<path d="M90.5 179.811C87.8 178.411 81.6 175.011 76.8 172.411L68 167.611L57.7 173.111C52 176.211 47 178.711 46.6 178.711C46.3 178.711 46 175.611 46 171.811V165.011L50 162.211C52.3 160.611 53.7 159.111 53.3 158.711C52.9 158.311 47.2 154.911 40.7 151.211L28.9 144.411L24.2 146.711C21.6 148.111 19.1 149.111 18.6 149.211C18 149.211 17.7 146.611 17.9 143.511C18 140.311 17.9 137.711 17.6 137.711C17.2 137.711 13.4 139.511 9 141.711C4.6 143.911 0.8 145.711 0.5 145.711C0.2 145.711 0 141.411 0 136.211V126.711L8.3 122.611C12.8 120.311 16.7 118.311 17 118.011C17.3 117.711 17.7 100.811 18 80.4106L18.5 43.4106L52 24.0106C89.3 2.41065 95.4 -0.689354 97.6 0.110646C98.4 0.410646 104.5 3.81064 111.1 7.71064C117.7 11.5106 123.3 14.7106 123.5 14.7106C123.7 14.7106 126.8 12.9106 130.2 10.7106L136.5 6.71064L137 14.4106L137.5 22.0106L149.4 28.8106L161.3 35.6106L170.7 30.6106L180 25.5106V32.7106C180 40.7106 179.7 40.6106 187.3 37.3106L191 35.7106V42.6106V49.5106L183.5 54.3106L176 59.0106V98.3107V137.511L136.2 160.111C114.3 172.511 96.2 182.611 95.9 182.611C95.7 182.511 93.3 181.211 90.5 179.811ZM116 125.911L134.5 115.211L134.8 91.5107L135 67.9106L115.9 56.9106L96.8 45.9106L89.6 49.7106C85.6 51.8106 76.6 56.7106 69.6 60.7106L57 67.8107L57.2 91.5107L57.5 115.111L69.5 122.011C84.9 130.911 95.2 136.411 96.5 136.611C97.1 136.611 105.8 131.811 116 125.911Z" fill="white"/>
</svg>
