<svg width="486" height="528" viewBox="0 0 486 528" fill="none" xmlns="http://www.w3.org/2000/svg">
<path d="M196.162 136.221C230.09 125.944 263.939 125.944 297.834 136.22C345.736 155.587 376.909 189.968 391.644 239.71C403.539 298.193 388.118 347.658 345.214 388.724C299.768 424.652 249.639 433.49 194.233 415.306C177.989 408.624 163.187 399.772 149.81 388.748C106.518 347.896 91.0864 298.425 103.359 239.69C117.386 189.897 148.215 155.525 196.162 136.221Z" stroke="#FCFBFE" stroke-width="10"/>
<path fill-rule="evenodd" clip-rule="evenodd" d="M320.5 238.5C320.657 239.873 320.49 241.207 320 242.5C308.803 253.363 297.97 264.529 287.5 276C281.498 276.993 279.332 274.493 281 268.5C288.135 260.364 295.635 252.53 303.5 245C263.501 244.5 223.501 244.333 183.5 244.5C183.5 241.5 183.5 238.5 183.5 235.5C223.67 235.832 263.67 235.499 303.5 234.5C296.202 226.702 288.702 219.035 281 211.5C279.167 205.333 281.333 203.167 287.5 205C299.371 215.371 310.371 226.537 320.5 238.5Z" fill="#FCFCFE"/>
<path fill-rule="evenodd" clip-rule="evenodd" d="M303.5 234.5C263.67 235.499 223.67 235.832 183.5 235.5C183.5 238.5 183.5 241.5 183.5 244.5C182.539 242.735 182.205 240.735 182.5 238.5C182.5 237.167 182.5 235.833 182.5 234.5C222.833 234.5 263.167 234.5 303.5 234.5Z" fill="#C5B1F0"/>
<path fill-rule="evenodd" clip-rule="evenodd" d="M195.5 312.5C194.957 312.56 194.624 312.893 194.5 313.5C234.828 314.5 275.161 314.833 315.5 314.5C315.5 317.5 315.5 320.5 315.5 323.5C275.499 323.333 235.499 323.5 195.5 324C200.702 329.37 206.035 334.536 211.5 339.5C213.461 341.963 215.628 344.297 218 346.5C219.65 351.068 218.15 353.734 213.5 354.5C207.21 349.546 201.21 344.213 195.5 338.5C190.203 332.702 184.703 327.035 179 321.5C178.333 319.5 178.333 317.5 179 315.5C189.5 305 200 294.5 210.5 284C216.852 281.601 219.352 283.768 218 290.5C210.632 298.036 203.132 305.369 195.5 312.5Z" fill="#FCFBFE"/>
<path fill-rule="evenodd" clip-rule="evenodd" d="M195.5 312.5C235.663 313.499 275.997 313.832 316.5 313.5C316.813 317.042 316.479 320.375 315.5 323.5C315.5 320.5 315.5 317.5 315.5 314.5C275.161 314.833 234.828 314.5 194.5 313.5C194.624 312.893 194.957 312.56 195.5 312.5Z" fill="#DDD1F6"/>
</svg>
